<svg xmlns="http://www.w3.org/2000/svg" xmlns:xlink="http://www.w3.org/1999/xlink" version="1.1" viewBox="0 0 1176.3 100"><path d="M314.9 96.7V71.6h-45.1v25.1c0 1.8-1.5 3.3-3.3 3.3h-12V23.3C254.4 10.5 265 0 277.9 0h28.9c12.9 0 23.4 10.5 23.4 23.3V100h-12c-1.8 0-3.3-1.5-3.3-3.3zm0-74.4c0-4.4-3.6-8-8.1-8h-28.9c-4.4 0-8.1 3.6-8.1 8v34.8h45.1V22.3zm861.4 1V100h-12c-1.8 0-3.3-1.5-3.3-3.3V71.6h-45.1v25.1c0 1.8-1.5 3.3-3.3 3.3h-12V23.3c0-12.9 10.5-23.3 23.4-23.3h28.9c12.9 0 23.4 10.5 23.4 23.3zM1161 57.2V22.3c0-4.4-3.6-8-8.1-8H1124c-4.4 0-8.1 3.6-8.1 8v34.9h45.1zm-83.5-33.6v52.9c0 13-10.5 23.6-23.4 23.6H1013c-5 0-9.1-4.1-9.1-9.1V9.1c0-5 4.1-9.1 9.1-9.1h41.1c12.9 0 23.4 10.6 23.4 23.6zm-15.3 53.9v-55c0-4.5-3.6-8.1-8.1-8.1h-32.6c-1.3 0-2.2 1-2.2 2.2v66.8c0 .6.3 1.2.7 1.6.4.4.9.6 1.5.6h32.6c4.4 0 8.1-3.7 8.1-8.1zM968.8.1c-1.8 0-3.3 1.5-3.3 3.3V70L932.8 7.5c-2.2-4.2-7.6-7.4-12.3-7.4h-14.6c-1.8 0-3.3 1.5-3.3 3.3V100h12c1.8 0 3.3-1.5 3.3-3.3V14.5c1.2.2 2.4 1 3 2l43.3 81c.7 1.4 2.4 2.5 3.9 2.5h12.8V.1h-12.1zm-89.2 23.2v53.4c0 12.9-10.5 23.3-23.4 23.3h-28.9c-12.9 0-23.4-10.5-23.4-23.3V23.3c0-12.9 10.5-23.3 23.4-23.3h28.9c12.8 0 23.4 10.5 23.4 23.3zm-15.4 54.4V22.3c0-4.4-3.6-8-8.1-8h-28.9c-4.4 0-8.1 3.6-8.1 8v55.4c0 4.4 3.6 8 8.1 8h28.9c4.5 0 8.1-3.6 8.1-8zM768.7 0c-1.8 0-3.3 1.5-3.3 3.3v39.4h-42.6V3.3c0-1.8-1.5-3.3-3.3-3.3h-12v100h12c1.8 0 3.3-1.5 3.3-3.3V57.1h42.6v39.5c0 1.8 1.5 3.3 3.3 3.3h12V0h-12zM603 0c-1.8 0-3.3 1.5-3.3 3.3V70L567 7.5c-2.2-4.2-7.7-7.4-12.4-7.4H540c-1.8 0-3.3 1.5-3.3 3.3V100h12c1.8 0 3.3-1.5 3.3-3.3V14.5c1.2.2 2.4 1 3 2l43.3 81c.7 1.4 2.4 2.5 3.9 2.5H615V0h-12zm-92.7 85.6h-41.5c-4.4 0-8.1-3.6-8.1-8.1V57.1h45.1c1.8 0 3.3-1.5 3.3-3.3V42.7h-48.4V22.5c0-4.5 3.6-8.1 8.1-8.1h41.5c1.8 0 3.3-1.5 3.3-3.3V0h-44.8c-12.9 0-23.4 10.6-23.4 23.6v52.9c0 13 10.5 23.6 23.4 23.6h44.8V88.9c.1-1.8-1.4-3.3-3.3-3.3zm-101-29.7l20.8 44.1h-13.8c-1.7 0-3.2-1.3-3.8-2.5l-19-40.4h-24.8v39.5c0 1.8-1.5 3.3-3.3 3.3h-12V9.2c0-5 4.1-9.1 9.1-9.1h40.2C416.4 0 426 9.2 426 22.4v12.5c0 10-6 17.6-16.7 21zm1.3-21.3V22.5c0-4.5-3.6-8.1-8.1-8.1h-31.8c-1.2 0-2.1 1.1-2.1 2.2v26.1h33.9c4.5 0 8.1-3.6 8.1-8.1zm-174.9 51h-39.9c-4.5 0-8.2-3.7-8.2-8.4V0h-12c-1.8 0-3.3 1.5-3.3 3.4v72.7c0 13.2 10.6 23.9 23.6 23.9h43.3V88.9c-.1-1.8-1.6-3.3-3.5-3.3zm-81.9.4h-22.7c-3.3 0-5.9-2.6-5.9-5.9V52.4c0-3.3 2.6-6 5.9-6h22.7c1.7 0 3.1-1.3 3.1-3v-11h-25.7c-11.2 0-20.4 9.2-20.4 20.5v26.6c0 11.3 9.1 20.5 20.4 20.5h25.7V89.1c0-1.7-1.4-3.1-3.1-3.1zM92.1 0h-9c-1.9 0-4 1.2-4.9 2.9L47.6 59.1 17.2 3c-.9-1.7-3-2.9-4.9-2.9h-9C1.5 0 0 1.5 0 3.4V100h12c1.8 0 3.3-1.5 3.3-3.3V28.1L39 73.3c.8 1.5 2.4 2.4 4 2.4h9.3c1.6 0 3.2-.9 4-2.5L80 28.1v68.5c0 1.8 1.5 3.3 3.3 3.3h12V3.4c.1-1.9-1.4-3.4-3.2-3.4z"/></svg>